# xmcd
# Track frame offsets:
# 150
# 12900
# 24622
# 40400
# 51767
# 65298
# 79371
# 91684
# 104563
# 117272
# 129942
# 142237
# 154191
# 167713
# 180084
# 193617
# 206870
# 219118
#
# Disc length: 3082 seconds
# Revision: 0
# Processed by: cddbd v1.5.1PL2 Copyright (c) Steve Scherf et al.
# Submitted via: VisiTrax 2.10.0.248 - For more info visit www.synapsa.com
#
DISCID=f50c0812
DTITLE=Various Artist - Deep In The Heart Of Texas
DYEAR=2004
DGENRE=Misc
TTITLE0=The Sons Of The Pioneers - Have I Told You Lately That I Love You
TTITLE1=Roy Acuff - Just To Ease My Worried Mind
TTITLE2=Jimmie Rodgers - Blue Yodel
TTITLE3=Bill Monroe and His Bluegrass Boys - Orange Blossom Special
TTITLE4=Merle Travis - Divorce Me C.O.D.
TTITLE5=The Carter Family - Answer To Sleeping Willow
TTITLE6=Hank Snow - I'll Tell The World That I Love You
TTITLE7=Ernest Tubb - Walking The Floor Over You
TTITLE8=Wilf Carter - I've Hung Up My Chaps And Saddle
TTITLE9=Tex Ritter - I'm Wastin' My Tears On You
TTITLE10=Gene Autry - Deep In The Heart Of Texas
TTITLE11=Bob Wills and His Texas Playboys - Take Me Back To Tulsa
TTITLE12=Shelton Brothers - Just Because
TTITLE13=The Shelton Brothers - Wreck On The Highway
TTITLE14=Roy Acuff and His Smoky Mountain Boys - Plant Some Flowers By My Gravesi
TTITLE14=de
TTITLE15=Wilf Carter - Daddy And Home
TTITLE16=Jimmie Rodgers - It Makes No Difference Now
TTITLE17=GeneBill Monroe and His Bluegrass Boys - No Letter In The Mail
EXTD=
EXTT0=
EXTT1=
EXTT2=
EXTT3=
EXTT4=
EXTT5=
EXTT6=
EXTT7=
EXTT8=
EXTT9=
EXTT10=
EXTT11=
EXTT12=
EXTT13=
EXTT14=
EXTT15=
EXTT16=
EXTT17=
PLAYORDER=
